<?xml version="1.0" standalone="no"?>
<!DOCTYPE svg PUBLIC "-//W3C//DTD SVG 20010904//EN"
 "http://www.w3.org/TR/2001/REC-SVG-20010904/DTD/svg10.dtd">
<svg version="1.0" xmlns="http://www.w3.org/2000/svg"
 width="531.000000pt" height="349.000000pt" viewBox="0 0 531.000000 349.000000"
 preserveAspectRatio="xMidYMid meet">

<g transform="translate(0.000000,349.000000) scale(0.100000,-0.100000)"
fill="#FF570A" stroke="none">
<path d="M1865 3453 c-77 -5 -254 -32 -315 -47 -118 -30 -137 -35 -200 -54
-144 -45 -262 -92 -405 -162 -82 -41 -155 -79 -162 -84 -25 -22 -39 -31 -63
-44 -97 -48 -358 -273 -447 -385 -32 -39 -61 -74 -64 -77 -32 -28 -105 -135
-138 -204 -86 -176 -66 -247 88 -308 100 -39 192 -51 346 -44 166 7 212 12
310 30 44 9 125 22 180 31 55 8 144 26 198 39 82 20 99 22 104 10 3 -8 1 -20
-5 -27 -6 -7 -7 -28 -2 -54 4 -24 4 -43 0 -43 -5 0 -8 -35 -8 -77 -1 -61 4
-85 20 -110 45 -74 108 -54 220 69 46 51 93 103 106 116 12 14 22 31 22 38 0
7 4 14 8 16 9 4 78 115 107 172 17 34 73 82 83 72 1 -2 -15 -73 -38 -157 -22
-85 -49 -188 -60 -229 -10 -41 -28 -111 -39 -155 -11 -44 -27 -114 -36 -155
-9 -41 -21 -89 -26 -107 -6 -18 -11 -50 -12 -72 0 -22 -4 -38 -7 -35 -3 3 -10
-23 -16 -58 -6 -34 -18 -97 -27 -138 -23 -113 -56 -326 -55 -360 0 -8 -3 -109
-7 -225 -6 -174 -11 -226 -31 -303 -26 -100 -45 -265 -34 -297 7 -18 8 -18 31
7 24 25 58 104 159 368 26 69 68 168 93 220 48 103 157 372 157 390 0 6 13 40
30 76 16 37 27 70 24 75 -3 5 -1 9 4 9 4 0 21 33 36 72 16 40 34 87 41 103 8
17 20 50 29 75 8 25 21 61 29 80 14 33 66 191 117 360 13 41 27 79 32 85 4 5
8 18 8 29 0 11 11 47 24 80 13 34 43 131 66 216 61 224 65 235 103 253 18 9
73 28 122 43 50 14 110 34 135 44 42 16 343 113 455 145 65 19 316 90 425 120
140 38 334 84 530 125 279 58 413 88 430 94 8 3 69 17 135 32 66 14 147 32
180 41 33 8 78 18 100 23 22 4 76 18 120 29 44 12 89 23 100 26 11 3 31 9 45
14 14 5 34 12 44 15 10 4 17 9 14 12 -3 3 -52 -7 -109 -21 -124 -32 -354 -83
-424 -95 -46 -7 -248 -48 -500 -100 -55 -11 -136 -27 -180 -36 -44 -8 -94 -19
-110 -25 -17 -5 -89 -22 -160 -38 -72 -16 -182 -42 -245 -59 -63 -17 -153 -40
-200 -52 -89 -22 -122 -32 -255 -76 -44 -14 -129 -41 -190 -60 -60 -18 -190
-60 -289 -94 -98 -34 -180 -59 -183 -57 -4 5 22 188 46 324 29 162 -2 325 -78
406 -33 36 -134 93 -197 111 -68 20 -249 36 -339 29z m242 -44 c76 -11 175
-50 218 -87 11 -9 31 -33 45 -52 13 -19 30 -41 37 -48 33 -34 43 -74 44 -164
1 -102 -8 -168 -48 -360 -26 -127 -27 -128 -62 -146 -45 -23 -389 -137 -395
-131 -5 4 16 98 29 134 5 11 16 38 26 61 52 118 129 330 129 356 0 11 -7 18
-18 18 -23 0 -59 -26 -49 -36 4 -4 1 -14 -7 -23 -7 -9 -20 -36 -29 -61 -82
-236 -110 -302 -179 -420 -51 -86 -52 -87 -77 -95 -22 -7 -23 -5 -16 24 4 18
18 59 31 93 13 34 24 69 24 78 0 9 4 20 9 25 5 6 30 71 56 145 48 139 56 163
75 240 7 25 16 54 20 65 22 52 34 251 18 303 -10 33 -22 38 -78 33 -26 -2
-109 -77 -110 -98 0 -6 -3 -13 -7 -15 -9 -3 -143 -278 -143 -291 0 -7 -64
-163 -101 -244 -10 -24 -19 -47 -19 -53 0 -20 -34 -80 -46 -80 -7 0 -10 -8 -7
-20 6 -23 -11 -100 -33 -147 -19 -41 -39 -44 -29 -5 4 15 8 45 9 67 4 61 16
103 32 109 9 3 14 20 14 44 0 21 7 59 16 84 16 49 16 109 -1 115 -22 7 -46
-24 -61 -82 -71 -265 -103 -427 -85 -433 6 -2 11 -16 11 -30 -1 -34 -30 -56
-95 -70 -119 -27 -153 -34 -258 -53 -62 -11 -128 -22 -147 -25 -19 -2 -99 -13
-177 -24 -241 -34 -414 -21 -522 39 -99 53 -105 95 -39 232 26 52 63 119 84
149 46 67 233 264 317 334 34 28 71 59 82 69 50 46 267 181 378 235 220 108
378 162 601 209 203 42 385 53 533 32z m-150 -142 c6 0 9 -9 6 -21 -13 -52
-15 -86 -4 -86 6 0 11 -10 11 -22 0 -18 -2 -20 -10 -8 -7 12 -10 11 -16 -5 -4
-10 -8 -40 -8 -66 -1 -26 -4 -43 -7 -37 -4 6 -12 -13 -19 -42 -10 -44 -49
-161 -89 -275 -6 -16 -25 -70 -42 -120 -18 -49 -44 -126 -60 -170 -16 -44 -29
-81 -29 -82 0 -2 -81 -27 -140 -43 -25 -7 -55 -16 -68 -21 -31 -12 -32 -12
-32 9 0 40 113 355 200 557 99 231 142 311 219 402 27 32 41 41 56 36 11 -3
25 -6 32 -6z m-155 -59 c-7 -7 -12 -8 -12 -2 0 14 12 26 19 19 2 -3 -1 -11 -7
-17z m-882 -48 c0 -5 -5 -10 -11 -10 -5 0 -7 5 -4 10 3 6 8 10 11 10 2 0 4 -4
4 -10z m1169 -234 c-12 -34 -29 -49 -29 -26 0 17 31 72 37 67 3 -3 -1 -22 -8
-41z m256 -463 c-11 -59 -108 -398 -129 -453 -8 -19 -22 -64 -32 -100 -9 -36
-23 -76 -30 -90 -7 -14 -47 -131 -89 -260 -42 -129 -86 -255 -97 -280 -42 -92
-61 -137 -89 -215 -16 -44 -34 -89 -39 -100 -5 -11 -36 -83 -68 -160 -68 -162
-118 -260 -125 -247 -13 20 53 413 94 557 24 86 24 95 1 95 -23 0 -35 -26 -57
-116 -8 -38 -20 -85 -25 -104 -5 -19 -19 -78 -30 -130 -21 -100 -51 -205 -63
-216 -8 -8 0 141 13 261 20 179 80 517 99 554 4 9 11 36 15 60 9 58 63 285 81
336 7 22 16 54 19 70 3 17 17 68 30 115 14 47 26 94 26 105 0 12 4 25 9 30 5
6 16 37 26 70 28 99 35 107 122 137 43 15 134 47 203 72 69 24 129 45 134 45
4 1 5 -16 1 -36z m-937 -168 c-7 -21 -19 -41 -27 -43 -8 -3 -11 0 -8 5 3 5 9
25 12 43 7 41 28 72 33 48 1 -8 -3 -32 -10 -53z m332 -22 c0 -14 -52 -93 -61
-93 -6 0 -9 3 -7 8 13 26 27 60 32 75 5 16 36 25 36 10z m-121 -86 c-21 -39
-53 -99 -69 -132 -54 -104 -80 -124 -118 -89 -23 22 -24 27 -18 115 6 100 20
133 57 137 13 1 58 13 99 26 41 13 78 22 82 20 3 -3 -11 -37 -33 -77z m-210
-251 c34 -35 34 -36 15 -51 -10 -8 -31 -19 -46 -24 -22 -8 -28 -7 -28 5 0 7
-5 14 -11 14 -7 0 -9 16 -5 48 4 26 8 63 10 82 6 57 8 57 20 8 7 -30 24 -60
45 -82z m367 -4 c-11 -10 -15 4 -8 28 l7 25 3 -23 c2 -13 1 -26 -2 -30z m-479
-14 c-3 -8 -6 -5 -6 6 -1 11 2 17 5 13 3 -3 4 -12 1 -19z m386 -388 c-3 -11
-7 -20 -9 -20 -2 0 -4 9 -4 20 0 11 4 20 9 20 5 0 7 -9 4 -20z m-97 -1098
c-12 -11 -17 7 -9 34 l8 29 3 -28 c2 -16 1 -31 -2 -35z m-6 -88 c0 -7 -13 -39
-30 -72 -16 -34 -30 -65 -30 -71 0 -5 -5 -13 -11 -17 -15 -9 -6 70 17 145 13
47 16 50 34 38 11 -6 20 -17 20 -23z"/>
<path d="M1325 2291 c-3 -5 -1 -12 5 -16 5 -3 10 1 10 9 0 18 -6 21 -15 7z"/>
</g>
</svg>
