<svg width="352" height="18" viewBox="0 0 352 18" fill="none" xmlns="http://www.w3.org/2000/svg">
<path d="M6 8.21593C7.09865 8.03501 17.5989 6.03877 19.4529 6.00068C21.3069 5.96259 25.6805 7.54008 28.7018 7.74956C31.7231 7.95903 55.2811 8.33718 56.4484 8.5657C57.6157 8.79422 42.0342 10.5002 42.9955 10.5478C43.9568 10.5954 63.8251 9.23435 68.2197 9.14866C72.6143 9.06296 91.5886 9.44131 96.8072 9.49844C102.026 9.55557 128.276 10.0196 132.121 9.84821C135.966 9.67682 140.665 7.43787 143.892 7.39978C147.12 7.36169 167.553 9.03906 171.639 9.38184C175.725 9.72462 191.105 11.5019 193.92 11.5971C196.736 11.6923 204.395 10.6335 206.112 10.5478C207.829 10.4621 213.636 10.5478 214.941 10.5478C216.245 10.5478 220.748 10.5573 222.087 10.5478C223.426 10.5382 229.311 10.4597 231.336 10.4312C233.362 10.4026 244.763 10.3313 246.891 10.198C249.02 10.0647 254.449 8.98932 257.401 8.79888C260.354 8.60845 278.617 7.99945 283.046 7.86615C287.475 7.73285 308.063 7.02377 311.633 7.1666C315.204 7.30942 323.953 9.29129 326.768 9.61503C329.583 9.93876 344.527 11.0069 346.107 11.1307" stroke="#EEBA0B" stroke-width="11" stroke-linecap="round"/>
</svg>
